<!-- Generator: Adobe Illustrator 19.2.1, SVG Export Plug-In  -->
<svg version="1.1"
	 xmlns="http://www.w3.org/2000/svg" xmlns:xlink="http://www.w3.org/1999/xlink" xmlns:a="http://ns.adobe.com/AdobeSVGViewerExtensions/3.0/"
	 x="0px" y="0px" width="32px" height="32px" viewBox="0 0 32 32" style="enable-background:new 0 0 32 32;" xml:space="preserve">
<style type="text/css">
	.st0{fill:#62C7F1;}
</style>
<defs>
</defs>
<path class="st0" d="M16,0C7.2,0,0,7.2,0,16s7.2,16,16,16c8.8,0,16-7.2,16-16S24.8,0,16,0 M24,13.2c0.2,5.2-3.7,11-10.5,11
	c-2.1,0-4-0.6-5.7-1.7c2,0.2,3.9-0.3,5.5-1.5c-1.6,0-3-1.1-3.5-2.6c0.6,0.1,1.2,0.1,1.7-0.1c-1.8-0.4-3-2-3-3.7
	c0.5,0.3,1.1,0.4,1.7,0.5c-1.7-1.1-2.1-3.3-1.1-5c1.8,2.2,4.6,3.7,7.6,3.9c-0.5-2.3,1.2-4.6,3.6-4.6c1.1,0,2,0.4,2.7,1.2
	c0.8-0.2,1.6-0.5,2.4-0.9c-0.3,0.9-0.9,1.6-1.6,2.1c0.8-0.1,1.5-0.3,2.1-0.6C25.4,12.1,24.8,12.7,24,13.2"/>
</svg>
